<svg width="54" height="54" viewBox="0 0 54 54" fill="none" xmlns="http://www.w3.org/2000/svg">
<path d="M26.8595 11.4137C26.8881 11.2578 27.1121 11.2578 27.1407 11.4137L27.5509 13.6539C27.7026 13.6601 27.8537 13.6682 28.004 13.6793L28.673 11.5026C28.7195 11.3512 28.9416 11.377 28.9523 11.5348L29.0997 13.8063C29.2497 13.8299 29.3988 13.8559 29.547 13.8844L30.464 11.8014C30.5278 11.6564 30.7454 11.7077 30.7374 11.8658L30.6193 14.1373C30.7658 14.1783 30.9114 14.2214 31.0558 14.2672L32.2081 12.3053C32.2884 12.1686 32.4983 12.2457 32.4718 12.402L32.0909 14.6442C32.2314 14.7019 32.3709 14.7615 32.5089 14.8238L33.882 13.0084C33.9775 12.882 34.1771 12.9824 34.1329 13.1344L33.4933 15.319C33.6258 15.3925 33.7572 15.4677 33.8868 15.5455L35.463 13.901C35.5727 13.7866 35.7593 13.9094 35.6974 14.0553L34.8068 16.151C34.9298 16.2394 35.0511 16.3301 35.171 16.4225L36.9288 14.9703C37.0511 14.8693 37.2222 15.0132 37.1437 15.151L36.0157 17.1295C36.1275 17.2312 36.2367 17.3356 36.3448 17.441L38.2609 16.2018C38.3939 16.1163 38.5471 16.2793 38.4532 16.4069L37.1027 18.2408C37.202 18.3549 37.2991 18.471 37.3947 18.5885L39.4396 17.5807C39.5817 17.5106 39.7154 17.6893 39.6075 17.8053L38.0529 19.4703C38.1383 19.5951 38.2216 19.7215 38.3029 19.8492L40.4513 19.0856C40.6006 19.0326 40.7118 19.2261 40.5909 19.3287L38.8546 20.8024C38.9249 20.9361 38.9948 21.0703 39.0607 21.2067L41.2804 20.6979C41.4349 20.6624 41.5234 20.8677 41.3917 20.9557L39.4962 22.2164C39.5506 22.3579 39.6028 22.5004 39.6525 22.6442L41.9161 22.3951C42.0738 22.3778 42.1384 22.5926 41.9972 22.6647L39.9689 23.6979C40.0061 23.844 40.04 23.9913 40.0724 24.1393L42.3507 24.1549C42.5093 24.1559 42.5483 24.3761 42.3995 24.4313L40.2628 25.2233C40.2827 25.3726 40.2997 25.5226 40.3146 25.6735L42.5782 25.9537C42.7354 25.9734 42.7479 26.1965 42.5939 26.234L40.3781 26.7731C40.3793 26.8484 40.381 26.924 40.381 26.9996C40.381 27.0748 40.3793 27.1503 40.3781 27.2252L42.5939 27.7662C42.7479 27.8038 42.7355 28.0269 42.5782 28.0465L40.3146 28.3248C40.2997 28.4756 40.2827 28.6257 40.2628 28.775L42.3995 29.568C42.5483 29.6231 42.5093 29.8433 42.3507 29.8444L40.0724 29.859C40.0401 30.007 40.0061 30.1543 39.9689 30.3004L41.9972 31.3346C42.1385 31.4066 42.0738 31.6215 41.9161 31.6041L39.6525 31.3541C39.6029 31.4978 39.5515 31.6405 39.4972 31.7819L41.3917 33.0436C41.5236 33.1315 41.4349 33.3369 41.2804 33.3014L39.0607 32.7916C38.9947 32.9283 38.9251 33.0629 38.8546 33.1969L40.5909 34.6705C40.7118 34.7731 40.6007 34.9668 40.4513 34.9137L38.3029 34.149C38.2217 34.2767 38.1392 34.4033 38.0538 34.5279L39.6075 36.194C39.7156 36.3099 39.5818 36.4897 39.4396 36.4196L37.3947 35.4108C37.2993 35.528 37.2019 35.6435 37.1027 35.7574L38.4532 37.5934C38.5465 37.7209 38.3938 37.883 38.2609 37.7975L36.3458 36.5572C36.2375 36.6628 36.1276 36.7669 36.0157 36.8688L37.1437 38.8483C37.2222 38.986 37.0511 39.1299 36.9288 39.0289L35.171 37.5768C35.0513 37.669 34.9306 37.76 34.8077 37.8483L35.6974 39.944C35.7593 40.0899 35.5727 40.2128 35.463 40.0983L33.8868 38.4528C33.757 38.5307 33.6259 38.6067 33.4933 38.6803L34.1329 40.8649C34.1774 41.017 33.9776 41.1173 33.882 40.9908L32.5089 39.1754C32.3709 39.2377 32.2314 39.2973 32.0909 39.3551L32.4718 41.5983C32.4979 41.7543 32.2883 41.8306 32.2081 41.694L31.0558 39.7321C30.9113 39.7779 30.7658 39.8209 30.6193 39.8619L30.7374 42.1334C30.7456 42.2917 30.5278 42.343 30.464 42.1979L29.547 40.1149C29.3988 40.1434 29.2497 40.1694 29.0997 40.193L28.9523 42.4645C28.9418 42.6225 28.7195 42.6482 28.673 42.4967L28.005 40.3199C27.8543 40.3311 27.7029 40.3392 27.5509 40.3453L27.1407 42.5856C27.1121 42.7415 26.8881 42.7415 26.8595 42.5856L26.4484 40.3453C26.2963 40.3392 26.1449 40.3311 25.9943 40.3199L25.3273 42.4967C25.2807 42.6482 25.0584 42.6225 25.048 42.4645L24.8995 40.193C24.7496 40.1694 24.6005 40.1434 24.4523 40.1149L23.5363 42.1979C23.4724 42.343 23.2546 42.2917 23.2628 42.1334L23.38 39.8619C23.2332 39.8208 23.0872 39.778 22.9425 39.7321L21.7921 41.694C21.7119 41.8306 21.5023 41.7543 21.5284 41.5983L21.9083 39.3561C21.7677 39.2983 21.6285 39.2378 21.4904 39.1754L20.1183 40.9908C20.0227 41.1173 19.8228 41.017 19.8673 40.8649L20.506 38.6803C20.3735 38.6067 20.2421 38.5316 20.1124 38.4537L18.5372 40.0983C18.4276 40.2128 18.2409 40.0899 18.3029 39.944L19.1915 37.8483C19.0687 37.76 18.9479 37.669 18.8282 37.5768L17.0714 39.0289C16.9492 39.1299 16.7781 38.986 16.8566 38.8483L17.9835 36.8688C17.8716 36.7669 17.7618 36.6628 17.6534 36.5572L15.7394 37.7975C15.6064 37.8831 15.4537 37.721 15.547 37.5934L16.8966 35.7584C16.7972 35.6443 16.7001 35.5282 16.6046 35.4108L14.5607 36.4196C14.4184 36.4897 14.2846 36.3099 14.3927 36.194L15.9454 34.5279C15.8601 34.4034 15.7766 34.2776 15.6954 34.15L13.5489 34.9137C13.3995 34.9669 13.2884 34.7732 13.4093 34.6705L15.1437 33.1969C15.0733 33.063 15.0045 32.9281 14.9386 32.7916L12.7198 33.3014C12.5653 33.3369 12.4766 33.1315 12.6085 33.0436L14.5021 31.7819C14.4478 31.6405 14.3964 31.4978 14.3468 31.3541L12.0831 31.6041C11.9258 31.621 11.8619 31.4065 12.0031 31.3346L14.0304 30.3004C13.9932 30.1543 13.9592 30.007 13.9269 29.859L11.6495 29.8444C11.4909 29.8433 11.452 29.6231 11.6007 29.568L13.7364 28.775C13.7166 28.6257 13.6986 28.4757 13.6837 28.3248L11.422 28.0465C11.2648 28.027 11.2519 27.8041 11.4054 27.7662L13.6212 27.2252C13.62 27.1503 13.6193 27.0748 13.6193 26.9996C13.6193 26.924 13.62 26.8484 13.6212 26.7731L11.4054 26.234C11.2517 26.1962 11.2649 25.9733 11.422 25.9537L13.6837 25.6735C13.6986 25.5226 13.7166 25.3726 13.7364 25.2233L11.6007 24.4313C11.452 24.3761 11.4909 24.1559 11.6495 24.1549L13.9269 24.1393C13.9592 23.9913 13.9932 23.844 14.0304 23.6979L12.0031 22.6647C11.8619 22.5927 11.9258 22.3783 12.0831 22.3951L14.3468 22.6442C14.3964 22.5004 14.4487 22.3579 14.5031 22.2164L12.6085 20.9557C12.4768 20.8677 12.5653 20.6624 12.7198 20.6979L14.9386 21.2067C15.0046 21.07 15.0742 20.9354 15.1447 20.8014L13.4093 19.3287C13.2884 19.2261 13.3996 19.0325 13.5489 19.0856L15.6954 19.8492C15.7768 19.7213 15.8608 19.5952 15.9464 19.4703L14.3927 17.8053C14.2848 17.6893 14.4185 17.5106 14.5607 17.5807L16.6046 18.5885C16.7001 18.471 16.7972 18.3549 16.8966 18.2408L15.547 16.4069C15.4531 16.2792 15.6063 16.1162 15.7394 16.2018L17.6544 17.441C17.7626 17.3356 17.8718 17.2312 17.9835 17.1295L16.8566 15.151C16.7781 15.0132 16.9492 14.8693 17.0714 14.9703L18.8282 16.4225C18.9481 16.3301 19.0694 16.2394 19.1925 16.151L18.3029 14.0553C18.2409 13.9093 18.4276 13.7865 18.5372 13.901L20.1124 15.5455C20.2421 15.4677 20.3735 15.3925 20.506 15.319L19.8673 13.1344C19.8231 12.9824 20.0227 12.882 20.1183 13.0084L21.4904 14.8238C21.6285 14.7615 21.7677 14.701 21.9083 14.6432L21.5284 12.402C21.5019 12.2457 21.7118 12.1686 21.7921 12.3053L22.9435 14.2672C23.0879 14.2214 23.2335 14.1783 23.38 14.1373L23.2628 11.8658C23.2549 11.7077 23.4724 11.6564 23.5363 11.8014L24.4523 13.8844C24.6005 13.8559 24.7496 13.8299 24.8995 13.8063L25.048 11.5348C25.0586 11.377 25.2808 11.3512 25.3273 11.5026L25.9952 13.6793C26.1456 13.6682 26.2967 13.6601 26.4484 13.6539L26.8595 11.4137ZM27.0001 15.7496C20.787 15.7496 15.7502 20.7865 15.7501 26.9996C15.7501 33.2128 20.7869 38.2496 27.0001 38.2496C33.2133 38.2496 38.2501 33.2128 38.2501 26.9996C38.2501 20.7865 33.2133 15.7496 27.0001 15.7496Z" fill="url(#paint0_linear_4502_5415)"/>
<g filter="url(#filter0_d_4502_5415)">
<path d="M26.8295 2.9491C26.859 2.7538 27.1408 2.75377 27.1703 2.9491L27.7338 6.74109C28.0313 6.75168 28.3273 6.76762 28.6215 6.7909L29.6224 3.09265C29.6742 2.90169 29.9549 2.934 29.9613 3.13172L30.0814 6.95887C30.3756 7.00372 30.6676 7.05581 30.9574 7.11316L32.3802 3.55847C32.4538 3.37493 32.7285 3.43973 32.7123 3.6366L32.3871 7.45105C32.6741 7.52998 32.9588 7.61485 33.2406 7.70594L35.0658 4.34168C35.1602 4.16797 35.4252 4.26419 35.3861 4.45789L34.6205 8.20887C34.8959 8.32069 35.1686 8.43798 35.4379 8.5614L37.641 5.43152C37.755 5.26983 38.0072 5.39591 37.9457 5.58387L36.7494 9.22156C37.0097 9.36461 37.2667 9.51288 37.5199 9.66687L40.0736 6.81238C40.2056 6.66514 40.4408 6.82033 40.3578 6.99988L38.7465 10.4745C38.9882 10.6466 39.2257 10.8244 39.4593 11.0067L42.3285 8.46668C42.4766 8.33572 42.6929 8.51681 42.5902 8.68543L40.5853 11.952C40.8051 12.1506 41.0199 12.3545 41.2308 12.5624L44.3763 10.372C44.5387 10.2591 44.7324 10.4635 44.6107 10.619L42.2396 13.6317C42.4351 13.8544 42.6261 14.0812 42.8119 14.3124L46.1898 12.5009C46.3641 12.4081 46.5321 12.634 46.3929 12.7743L43.6898 15.4901C43.8581 15.7337 44.0213 15.9811 44.1791 16.2323L47.7425 14.827C47.9266 14.7546 48.068 14.9987 47.9134 15.122L44.9144 17.5038C45.0534 17.7655 45.1871 18.0304 45.3148 18.2987L49.016 17.3173C49.2072 17.2668 49.3188 17.5264 49.1508 17.6307L45.8978 19.6473C46.0053 19.9235 46.1079 20.2024 46.2035 20.4843L49.9906 19.9393C50.1864 19.9113 50.2679 20.1812 50.0892 20.2655L46.6234 21.8905C46.6978 22.1771 46.7655 22.4663 46.8275 22.7577L50.6556 22.6561C50.8532 22.6512 50.9018 22.9283 50.7142 22.9911L47.0804 24.204C47.1208 24.4966 47.1543 24.7913 47.182 25.0878L50.9994 25.4315C51.1964 25.4493 51.2132 25.7305 51.0199 25.7714L47.2679 26.5546C47.2711 26.7026 47.2738 26.8511 47.2738 26.9999C47.2738 27.1483 47.2711 27.2965 47.2679 27.4442L51.0199 28.2284C51.2132 28.2693 51.1964 28.5504 50.9994 28.5682L47.182 28.911C47.1543 29.2075 47.1208 29.5022 47.0804 29.7948L50.7142 31.0087C50.9019 31.0714 50.8533 31.3485 50.6556 31.3436L46.8275 31.2411C46.7655 31.5324 46.6978 31.8217 46.6234 32.1083L50.0892 33.7343C50.2681 33.8185 50.1864 34.0895 49.9906 34.0614L46.2035 33.5145C46.1079 33.7964 46.0053 34.0753 45.8978 34.3514L49.1508 36.369C49.319 36.4734 49.2073 36.733 49.016 36.6825L45.3148 35.7001C45.1871 35.9684 45.0534 36.2334 44.9144 36.495L47.9134 38.8778C48.0682 39.0011 47.9267 39.2453 47.7425 39.1727L44.1791 37.7665C44.0213 38.0176 43.8581 38.2651 43.6898 38.5087L46.3929 41.2255C46.5324 41.3657 46.3642 41.5919 46.1898 41.4989L42.8109 39.6874C42.6255 39.9182 42.4348 40.1447 42.2396 40.3671L44.6107 43.3807C44.7326 43.5363 44.5387 43.7418 44.3763 43.6288L41.2308 41.4374C41.0201 41.6451 40.8049 41.8484 40.5853 42.0468L42.5902 45.3143C42.6932 45.483 42.4766 45.6643 42.3285 45.5331L39.4593 42.9921C39.2257 43.1744 38.9882 43.3522 38.7465 43.5243L40.3578 46.9999C40.4411 47.1796 40.2056 47.3349 40.0736 47.1874L37.5209 44.3329C37.2676 44.4869 37.0098 44.6341 36.7494 44.7772L37.9457 48.4159C38.0074 48.604 37.755 48.7302 37.641 48.5682L35.4379 45.4374C35.1686 45.5608 34.8959 45.6781 34.6205 45.7899L35.3861 49.5419C35.4254 49.7358 35.1602 49.8321 35.0658 49.6581L33.2406 46.2928C32.9588 46.3839 32.6741 46.4688 32.3871 46.5477L32.7123 50.3632C32.7287 50.5602 32.4538 50.6251 32.3802 50.4413L30.9574 46.8856C30.6676 46.943 30.3756 46.9951 30.0814 47.0399L29.9613 50.868C29.955 51.066 29.6741 51.0983 29.6224 50.9071L28.6215 47.2089C28.3273 47.2321 28.0313 47.2471 27.7338 47.2577L27.1703 51.0507C27.1409 51.2462 26.8588 51.2462 26.8295 51.0507L26.265 47.2577C25.9675 47.2471 25.6714 47.2322 25.3773 47.2089L24.3773 50.9071C24.3256 51.0983 24.0447 51.066 24.0384 50.868L23.9174 47.0399C23.6232 46.995 23.3312 46.943 23.0414 46.8856L21.6195 50.4413C21.546 50.6251 21.2711 50.5602 21.2875 50.3632L21.6117 46.5477C21.3246 46.4688 21.04 46.384 20.7582 46.2928L18.934 49.6581C18.8396 49.8321 18.5743 49.7358 18.6136 49.5419L19.3783 45.7899C19.1028 45.6781 18.8302 45.5608 18.5609 45.4374L16.3588 48.5682C16.2448 48.7302 15.9923 48.604 16.0541 48.4159L17.2494 44.7772C16.989 44.6341 16.7312 44.487 16.4779 44.3329L13.9261 47.1874C13.7941 47.335 13.5587 47.1796 13.642 46.9999L15.2523 43.5243C15.0104 43.352 14.7733 43.1736 14.5394 42.9911L11.6713 45.5331C11.5231 45.6643 11.3065 45.4831 11.4095 45.3143L13.4134 42.0468C13.1938 41.8483 12.9787 41.6451 12.7679 41.4374L9.62341 43.6288C9.46101 43.7419 9.26706 43.5363 9.38903 43.3807L11.7592 40.3671C11.5639 40.1447 11.3733 39.9182 11.1879 39.6874L7.80993 41.4989C7.63552 41.592 7.46731 41.3658 7.60681 41.2255L10.309 38.5087C10.1407 38.2651 9.97744 38.0177 9.8197 37.7665L6.2572 39.1727C6.073 39.2454 5.93144 39.0011 6.0863 38.8778L9.08435 36.495C8.94537 36.2333 8.81164 35.9684 8.68396 35.7001L4.98376 36.6825C4.79238 36.7332 4.68069 36.4734 4.84899 36.369L8.10192 34.3514C7.99437 34.0752 7.89092 33.7965 7.79528 33.5145L4.00817 34.0614C3.81258 34.0891 3.73166 33.8184 3.91052 33.7343L7.37536 32.1083C7.30098 31.8217 7.23327 31.5324 7.17126 31.2411L3.34411 31.3436C3.1463 31.3487 3.09772 31.0714 3.28552 31.0087L6.91833 29.7948C6.87798 29.5022 6.84449 29.2075 6.81677 28.911L3.00036 28.5682C2.8032 28.5505 2.78632 28.2692 2.97985 28.2284L6.73181 27.4442C6.72863 27.2965 6.72692 27.1483 6.72692 26.9999C6.72693 26.8511 6.72862 26.7026 6.73181 26.5546L2.97985 25.7714C2.78633 25.7306 2.8032 25.4492 3.00036 25.4315L6.81677 25.0878C6.8445 24.7913 6.87797 24.4966 6.91833 24.204L3.28552 22.9911C3.09772 22.9284 3.1463 22.6511 3.34411 22.6561L7.17126 22.7577C7.23329 22.4664 7.30097 22.1771 7.37536 21.8905L3.91052 20.2655C3.73165 20.1813 3.81249 19.9115 4.00817 19.9393L7.79528 20.4843C7.89092 20.2023 7.99437 19.9236 8.10192 19.6473L4.84899 17.6307C4.68069 17.5264 4.79239 17.2666 4.98376 17.3173L8.68396 18.2987C8.81164 18.0304 8.94538 17.7654 9.08435 17.5038L6.0863 15.122C5.93147 14.9987 6.07301 14.7544 6.2572 14.827L9.8197 16.2323C9.97743 15.9812 10.1407 15.7337 10.309 15.4901L7.60681 12.7743C7.46734 12.634 7.63553 12.4078 7.80993 12.5009L11.1869 14.3124C11.3726 14.0812 11.5637 13.8544 11.7592 13.6317L9.38903 10.619C9.26712 10.4634 9.46102 10.2588 9.62341 10.372L12.7679 12.5624C12.9788 12.3545 13.1937 12.1505 13.4134 11.952L11.4095 8.68543C11.3066 8.51672 11.5231 8.33546 11.6713 8.46668L14.5394 11.0077C14.7732 10.8253 15.0105 10.6467 15.2523 10.4745L13.642 6.99988C13.5588 6.82022 13.7941 6.66487 13.9261 6.81238L16.4789 9.66687C16.732 9.5129 16.9891 9.3646 17.2494 9.22156L16.0541 5.58387C15.9924 5.39581 16.2448 5.26963 16.3588 5.43152L18.5609 8.5614C18.8301 8.43798 19.1029 8.32069 19.3783 8.20887L18.6136 4.45789C18.5745 4.26411 18.8396 4.16778 18.934 4.34168L20.7582 7.70594C21.04 7.61485 21.3247 7.52999 21.6117 7.45105L21.2875 3.6366C21.2712 3.43968 21.546 3.37482 21.6195 3.55847L23.0414 7.11316C23.3312 7.0558 23.6232 7.00373 23.9174 6.95887L24.0384 3.13172C24.0449 2.93399 24.3256 2.90163 24.3773 3.09265L25.3773 6.7909C25.6714 6.76761 25.9675 6.75169 26.265 6.74109L26.8295 2.9491ZM29.7875 27.8231C28.561 27.8231 27.4261 28.4722 26.8041 29.5292L20.7181 39.8749C19.7075 41.593 20.3533 43.8414 22.2738 44.3749C23.8498 44.8124 25.5124 45.0467 27.2299 45.0468C35.7861 45.0465 42.9688 39.2408 44.9584 31.4012C45.4438 29.4884 43.8381 27.8231 41.8646 27.8231H29.7875ZM19.0453 15.0194C18.0461 13.3209 15.8033 12.78 14.392 14.1552C11.0342 17.4273 8.95252 21.9736 8.95251 26.9999C8.95251 31.9158 10.9436 36.3729 14.1722 39.6278C15.5736 41.0405 17.8469 40.5109 18.8558 38.7958L24.9105 28.5009C25.5477 27.4176 25.5477 26.0743 24.9105 24.9911L19.0453 15.0194ZM27.0111 25.9745C26.4611 25.9745 26.0152 26.4206 26.015 26.9706C26.015 27.5207 26.461 27.9667 27.0111 27.9667C27.5611 27.9666 28.0072 27.5206 28.0072 26.9706C28.007 26.4207 27.561 25.9746 27.0111 25.9745ZM27.2299 8.95301C25.6208 8.95305 24.0602 9.15899 22.5736 9.5448C20.6254 10.0505 19.9544 12.3197 20.975 14.0546L26.805 23.9647C27.427 25.0217 28.562 25.6708 29.7884 25.6708H41.7308C43.7427 25.6707 45.3598 23.9415 44.7982 22.0096C42.6059 14.4701 35.5704 8.95322 27.2299 8.95301Z" fill="url(#paint1_linear_4502_5415)"/>
</g>
<defs>
<filter id="filter0_d_4502_5415" x="1.98172" y="2.80261" width="50.0361" height="50.1177" filterUnits="userSpaceOnUse" color-interpolation-filters="sRGB">
<feFlood flood-opacity="0" result="BackgroundImageFix"/>
<feColorMatrix in="SourceAlpha" type="matrix" values="0 0 0 0 0 0 0 0 0 0 0 0 0 0 0 0 0 0 127 0" result="hardAlpha"/>
<feOffset dy="0.861538"/>
<feGaussianBlur stdDeviation="0.430769"/>
<feColorMatrix type="matrix" values="0 0 0 0 0 0 0 0 0 0 0 0 0 0 0 0 0 0 0.45 0"/>
<feBlend mode="normal" in2="BackgroundImageFix" result="effect1_dropShadow_4502_5415"/>
<feBlend mode="normal" in="SourceGraphic" in2="effect1_dropShadow_4502_5415" result="shape"/>
</filter>
<linearGradient id="paint0_linear_4502_5415" x1="27" y1="11.9999" x2="27" y2="41.9992" gradientUnits="userSpaceOnUse">
<stop stop-color="#B4B4B8"/>
<stop offset="1" stop-color="#B4B4B8"/>
</linearGradient>
<linearGradient id="paint1_linear_4502_5415" x1="27.0195" y1="3.15757" x2="27.2889" y2="51.2268" gradientUnits="userSpaceOnUse">
<stop offset="0.193294" stop-color="#D4D4D8"/>
<stop offset="0.830878" stop-color="#9D9DA1"/>
</linearGradient>
</defs>
</svg>
